<svg width="546" height="153" viewBox="0 0 546 153" fill="none" xmlns="http://www.w3.org/2000/svg">
<path d="M69.9806 129.099C73.6851 132.918 76.964 136.585 80.5621 139.908C88.1452 146.897 96.8986 151.767 107.441 152.665C128.856 154.498 144.931 135.267 139.012 114.585C137.232 108.359 134.418 102.401 131.738 96.4422C119.89 70.2599 107.915 44.0775 96.0088 17.857C89.7895 4.14515 76.287 -2.72031 62.6587 1.00365C59.3716 1.81891 56.3147 3.35956 53.7179 5.50967C51.1211 7.65977 49.0521 10.3633 47.6666 13.4169C33.2936 43.7624 18.927 74.1048 4.56681 104.444C1.1138 111.758 -1.23657 119.359 0.697891 127.485C6.06602 149.857 30.7401 159.826 50.9939 147.948C57.3583 144.224 62.2911 139.086 66.576 133.243C67.6593 131.896 68.7909 130.588 69.9806 129.099ZM45.7515 69.6106C46.0229 68.3153 46.3816 67.0393 46.8251 65.7911C52.9574 52.8559 59.1154 39.9334 65.2992 27.0237C66.4212 24.6747 67.698 22.3257 70.7931 22.383C73.8882 22.4403 75.4455 24.5792 76.6545 27.2337C87.1683 50.2268 97.8272 73.1531 108.283 96.1653C111.833 103.967 115.16 111.892 118.197 119.903C120.634 126.349 116.988 132.059 110.072 132.316C106.57 132.487 103.088 131.697 100.013 130.034C95.8153 127.552 92.2753 123.961 88.5611 120.705C83.7927 116.533 82.1484 111.844 86.4913 106.306C87.0708 105.351 87.5074 104.319 87.7873 103.241C93.523 87.963 82.69 72.1219 67.7367 69.9161C62.8425 69.2 57.7838 69.6392 52.7929 69.5724C50.607 69.5819 48.4211 69.6106 45.7515 69.6106ZM48.6532 89.8441C52.5221 89.8441 56.391 89.5481 60.2116 89.911C66.3922 90.503 68.8199 94.3129 66.015 99.3641C60.318 109.476 54.031 119.311 45.5194 127.38C42.7561 129.753 39.4283 131.396 35.8471 132.154C31.185 133.252 27.0066 131.266 23.8534 127.657C20.8453 124.21 21.1645 120.371 22.9442 116.523C25.2752 111.481 27.6159 106.44 30.0727 101.455C37.0948 87.075 33.0324 90.1592 48.6048 89.8441H48.6532Z" fill="#1570EF"/>
<path d="M545.43 55.7491L524.367 115.249C523.415 118.184 522.067 121.12 520.321 124.055C518.655 127.07 516.513 129.767 513.895 132.147C511.357 134.527 508.263 136.312 504.613 137.502C501.043 138.771 496.799 139.089 491.88 138.454L490.571 128.458C495.411 127.189 499.179 125.483 501.876 123.341C504.574 121.199 506.676 118.383 508.183 114.892L511.872 106.681C512.586 104.936 513.261 102.833 513.895 100.374C514.609 97.8354 515.204 95.6538 515.68 93.8291L526.628 55.7491H545.43ZM498.782 55.7491L509.968 93.8291C510.286 95.3364 510.603 96.8438 510.92 98.3511C511.238 99.8584 511.515 101.366 511.753 102.873H514.966L509.373 114.535H505.089C503.741 114.535 502.551 114.138 501.519 113.345C500.488 112.552 499.774 111.52 499.377 110.251L479.98 55.7491H498.782Z" fill="black"/>
<path d="M449.944 54.2103C454.862 54.2103 459.027 54.8847 462.439 56.2333C465.85 57.5027 468.428 59.724 470.174 62.8973C471.998 65.9913 472.911 70.2753 472.911 75.7493V114.543H458.869L456.37 101.81L455.18 100.025V75.6303C455.18 72.8537 454.505 70.8307 453.157 69.5613C451.887 68.292 449.428 67.6573 445.779 67.6573C442.764 67.6573 438.996 67.7763 434.474 68.0143C429.952 68.173 425.311 68.411 420.551 68.7283L418.885 57.0663C421.741 56.511 425.033 56.035 428.762 55.6383C432.49 55.2417 436.219 54.9243 439.948 54.6863C443.676 54.369 447.008 54.2103 449.944 54.2103ZM465.652 78.3673L465.533 88.2443L439.353 88.3633C437.211 88.3633 435.664 88.879 434.712 89.9103C433.839 90.9417 433.403 92.33 433.403 94.0753V96.9313C433.403 98.9147 433.958 100.462 435.069 101.572C436.179 102.604 437.964 103.119 440.424 103.119C442.486 103.119 444.708 102.683 447.088 101.81C449.547 100.938 451.967 99.708 454.347 98.1213C456.727 96.5347 458.829 94.6703 460.654 92.5283V100.144C459.94 101.334 458.869 102.842 457.441 104.666C456.092 106.412 454.347 108.157 452.205 109.902C450.063 111.568 447.564 112.996 444.708 114.186C441.852 115.376 438.599 115.971 434.95 115.971C431.38 115.971 428.167 115.337 425.311 114.067C422.455 112.798 420.194 110.934 418.528 108.474C416.862 106.015 416.029 102.961 416.029 99.3113V93.2423C416.029 88.5617 417.615 84.9123 420.789 82.2943C423.962 79.6763 428.325 78.3673 433.879 78.3673H465.652Z" fill="black"/>
<path d="M378.509 31.2355C386.204 31.2355 392.234 32.0289 396.597 33.6155C400.96 35.2022 404.054 37.9392 405.879 41.8265C407.783 45.7139 408.735 51.1482 408.735 58.1295C408.735 65.1109 407.823 70.5452 405.998 74.4325C404.253 78.3199 401.357 81.0569 397.311 82.6435C393.265 84.1509 387.791 84.9045 380.889 84.9045C377.24 84.9045 373.67 84.7459 370.179 84.4285C366.688 84.1112 363.436 83.7145 360.421 83.2385C357.406 82.7625 354.828 82.2865 352.686 81.8105C350.544 81.2552 349.076 80.7395 348.283 80.2635L348.64 71.2195C353.321 71.2195 358.16 71.2195 363.158 71.2195C368.235 71.2195 373.233 71.2195 378.152 71.2195C381.325 71.1402 383.785 70.7435 385.53 70.0295C387.355 69.3155 388.624 68.0065 389.338 66.1025C390.131 64.1985 390.528 61.5409 390.528 58.1295C390.528 54.6389 390.131 51.9415 389.338 50.0375C388.624 48.1335 387.355 46.8245 385.53 46.1105C383.785 45.3172 381.325 44.9205 378.152 44.9205C370.853 44.9205 364.586 44.9602 359.35 45.0395C354.114 45.1189 350.584 45.2775 348.759 45.5155L346.974 32.4255C350.306 32.0289 353.44 31.7512 356.375 31.5925C359.31 31.4339 362.484 31.3545 365.895 31.3545C369.386 31.2752 373.59 31.2355 378.509 31.2355ZM365.181 32.4255V114.536H346.974V32.4255H365.181Z" fill="black"/>
<path d="M324.589 31.2355L324.47 95.7335C324.47 97.7169 325.065 99.2242 326.255 100.256C327.445 101.208 329.19 101.684 331.491 101.684H336.251L338.274 113.584C337.322 114.06 335.973 114.456 334.228 114.774C332.482 115.17 330.697 115.448 328.873 115.607C327.048 115.845 325.501 115.964 324.232 115.964C318.916 115.964 314.712 114.575 311.618 111.799C308.524 109.022 306.977 105.135 306.977 100.137V31.2355H324.589Z" fill="black"/>
<path d="M285.541 31.2355L285.422 95.7335C285.422 97.7169 286.017 99.2242 287.207 100.256C288.397 101.208 290.143 101.684 292.443 101.684H297.203L299.226 113.584C298.274 114.06 296.926 114.456 295.18 114.774C293.435 115.17 291.65 115.448 289.825 115.607C288.001 115.845 286.454 115.964 285.184 115.964C279.869 115.964 275.664 114.575 272.57 111.799C269.476 109.022 267.929 105.135 267.929 100.137V31.2355H285.541Z" fill="black"/>
<path d="M230.406 32.4192C231.913 32.4192 233.222 32.8555 234.333 33.7282C235.523 34.6008 236.316 35.7512 236.713 37.1792L260.513 114.529H241.949L225.17 54.1962C224.852 52.8475 224.535 51.4988 224.218 50.1502C223.9 48.7222 223.623 47.3735 223.385 46.1042H220.172C219.934 47.3735 219.656 48.7222 219.339 50.1502C219.101 51.4988 218.783 52.8475 218.387 54.1962L201.608 114.529H182.925L206.844 37.1792C207.24 35.7512 207.994 34.6008 209.105 33.7282C210.295 32.8555 211.643 32.4192 213.151 32.4192H230.406ZM243.02 79.1862V92.8712H200.418V79.1862H243.02Z" fill="black"/>
</svg>
